<svg width="15" height="9" viewBox="0 0 15 9" fill="none" xmlns="http://www.w3.org/2000/svg">
<path fill-rule="evenodd" clip-rule="evenodd" d="M0.179429 1.55039C0.0643549 1.43166 -3.46349e-08 1.27282 -2.74076e-08 1.10748C-2.01804e-08 0.942141 0.0643549 0.783275 0.179429 0.664552C0.236122 0.606294 0.303924 0.559989 0.378812 0.52837C0.453701 0.496752 0.534187 0.480468 0.615478 0.480468C0.696767 0.480468 0.777204 0.496752 0.852093 0.52837C0.926981 0.559989 0.994782 0.606294 1.05148 0.664552L7.61407 7.32976L13.9495 0.666582C14.0059 0.608544 14.0734 0.562425 14.1479 0.530921C14.2225 0.499417 14.3026 0.483167 14.3835 0.483167C14.4644 0.483167 14.5445 0.499417 14.6191 0.530921C14.6936 0.562425 14.7611 0.608544 14.8175 0.666582C14.9344 0.784347 15 0.943573 15 1.10951C15 1.27545 14.9344 1.43465 14.8175 1.55242L7.61407 9.00001L0.179429 1.55039Z" fill="#686565"/>
</svg>
