<svg width="11" height="7" viewBox="0 0 11 7" fill="none" xmlns="http://www.w3.org/2000/svg">
<path fill-rule="evenodd" clip-rule="evenodd" d="M0.124851 0.855934C0.0447991 0.760955 3.01041e-05 0.633882 3.01092e-05 0.50161C3.01142e-05 0.369338 0.0447991 0.242245 0.124851 0.147266C0.164289 0.10066 0.211455 0.0636163 0.263552 0.0383214C0.315648 0.0130264 0.371639 -5.05857e-07 0.428188 -5.03014e-07C0.484738 -5.00171e-07 0.540694 0.0130264 0.59279 0.0383214C0.644887 0.0636164 0.692053 0.10066 0.731491 0.147266L5.29678 5.47943L9.70404 0.148891C9.74328 0.10246 9.7902 0.0655652 9.84205 0.0403617C9.89391 0.0151583 9.94964 0.00215868 10.0059 0.00215868C10.0622 0.00215868 10.118 0.0151583 10.1698 0.0403617C10.2217 0.0655652 10.2686 0.10246 10.3079 0.148891C10.3892 0.243103 10.4348 0.370484 10.4348 0.503235C10.4348 0.635986 10.3892 0.763347 10.3079 0.857559L5.29678 6.81563L0.124851 0.855934Z" fill="#686565"/>
</svg>
