<svg width="11" height="11" viewBox="0 0 11 11" fill="none" xmlns="http://www.w3.org/2000/svg">
<path d="M10.0908 8.20871C10.0908 7.99944 10.0071 7.79018 9.85641 7.63951L7.39547 5.17857L9.85641 2.71763C10.0071 2.56696 10.0908 2.3577 10.0908 2.14844C10.0908 1.93917 10.0071 1.72991 9.85641 1.57924L8.71802 0.440848C8.56735 0.290178 8.35808 0.206473 8.14882 0.206473C7.93956 0.206473 7.7303 0.290178 7.57963 0.440848L5.11869 2.90179L2.65775 0.440848C2.50708 0.290178 2.29782 0.206473 2.08855 0.206473C1.87929 0.206473 1.67003 0.290178 1.51936 0.440848L0.380964 1.57924C0.230294 1.72991 0.146589 1.93917 0.146589 2.14844C0.146589 2.3577 0.230294 2.56696 0.380964 2.71763L2.8419 5.17857L0.380964 7.63951C0.230294 7.79018 0.146589 7.99944 0.146589 8.20871C0.146589 8.41797 0.230294 8.62723 0.380964 8.7779L1.51936 9.91629C1.67003 10.067 1.87929 10.1507 2.08855 10.1507C2.29782 10.1507 2.50708 10.067 2.65775 9.91629L5.11869 7.45536L7.57963 9.91629C7.7303 10.067 7.93956 10.1507 8.14882 10.1507C8.35808 10.1507 8.56735 10.067 8.71802 9.91629L9.85641 8.7779C10.0071 8.62723 10.0908 8.41797 10.0908 8.20871Z" fill="#989898"/>
</svg>
